<svg xmlns="http://www.w3.org/2000/svg" viewBox="0 0 64 64" role="img" aria-label="APIGOQR favicon">
  <defs>
    <linearGradient id="g" x1="0%" x2="100%" y1="0%" y2="100%">
      <stop offset="0%" stop-color="#0f1b33" />
      <stop offset="100%" stop-color="#14394e" />
    </linearGradient>
  </defs>
  <rect width="64" height="64" rx="18" fill="url(#g)" />
  <path d="M20 42V22h8.6c5.4 0 8.8 2.9 8.8 7.8 0 5.2-3.7 8.2-9.2 8.2H24v4zm4-7.3h4.1c3 0 5-1.5 5-4.6 0-2.9-1.9-4.4-4.9-4.4H24z" fill="#f8fbff" />
  <path d="M41.7 42c-4.6 0-7.7-3.2-7.7-8s3.2-8 7.8-8c2.4 0 4.7.9 6.1 2.4l-2.6 2.6c-.8-.8-1.9-1.3-3.2-1.3-2.4 0-4.1 1.8-4.1 4.3 0 2.6 1.7 4.4 4.2 4.4 1.2 0 2.4-.4 3.2-1.3l2.5 2.5c-1.5 1.6-3.7 2.4-6.2 2.4z" fill="#7fb2ff" />
</svg>
